%TF.GenerationSoftware,KiCad,Pcbnew,(6.0.4)*%
%TF.CreationDate,2022-08-16T14:10:40-04:00*%
%TF.ProjectId,PCB,5043422e-6b69-4636-9164-5f7063625858,rev?*%
%TF.SameCoordinates,Original*%
%TF.FileFunction,Copper,L2,Bot*%
%TF.FilePolarity,Positive*%
%FSLAX46Y46*%
G04 Gerber Fmt 4.6, Leading zero omitted, Abs format (unit mm)*
G04 Created by KiCad (PCBNEW (6.0.4)) date 2022-08-16 14:10:40*
%MOMM*%
%LPD*%
G01*
G04 APERTURE LIST*
%TA.AperFunction,ComponentPad*%
%ADD10C,2.500000*%
%TD*%
%TA.AperFunction,ComponentPad*%
%ADD11C,2.560000*%
%TD*%
%TA.AperFunction,ComponentPad*%
%ADD12R,1.600000X1.600000*%
%TD*%
%TA.AperFunction,ComponentPad*%
%ADD13O,1.600000X1.600000*%
%TD*%
%TA.AperFunction,Conductor*%
%ADD14C,0.457200*%
%TD*%
G04 APERTURE END LIST*
D10*
%TO.P,J1\u002C0,1,Pin_1*%
%TO.N,D5*%
X99390080Y-40383113D03*
D11*
%TO.P,J1\u002C0,2,Pin_2*%
%TO.N,D8*%
X109390080Y-40383113D03*
D10*
%TO.P,J1\u002C0,3,Pin_3*%
%TO.N,D12*%
X109390080Y-50383113D03*
%TO.P,J1\u002C0,4,Pin_4*%
%TO.N,A0*%
X99390080Y-50383113D03*
%TD*%
%TO.P,J2\u002C2,1,Pin_1*%
%TO.N,D3*%
X124390080Y-90383113D03*
D11*
%TO.P,J2\u002C2,2,Pin_2*%
%TO.N,D7*%
X134390080Y-90383113D03*
D10*
%TO.P,J2\u002C2,3,Pin_3*%
%TO.N,D13*%
X134390080Y-100383113D03*
%TO.P,J2\u002C2,4,Pin_4*%
%TO.N,A0*%
X124390080Y-100383113D03*
%TD*%
%TO.P,J3\u002C1,1,Pin_1*%
%TO.N,D4*%
X149390080Y-65383113D03*
D11*
%TO.P,J3\u002C1,2,Pin_2*%
%TO.N,D6*%
X159390080Y-65383113D03*
D10*
%TO.P,J3\u002C1,3,Pin_3*%
%TO.N,D11*%
X159390080Y-75383113D03*
%TO.P,J3\u002C1,4,Pin_4*%
%TO.N,A0*%
X149390080Y-75383113D03*
%TD*%
%TO.P,J2\u002C1,1,Pin_1*%
%TO.N,D4*%
X124390080Y-65383113D03*
D11*
%TO.P,J2\u002C1,2,Pin_2*%
%TO.N,D7*%
X134390080Y-65383113D03*
D10*
%TO.P,J2\u002C1,3,Pin_3*%
%TO.N,D10*%
X134390080Y-75383113D03*
%TO.P,J2\u002C1,4,Pin_4*%
%TO.N,A3*%
X124390080Y-75383113D03*
%TD*%
%TO.P,J2\u002C0,1,Pin_1*%
%TO.N,D5*%
X124390080Y-40383113D03*
D11*
%TO.P,J2\u002C0,2,Pin_2*%
%TO.N,D7*%
X134390080Y-40383113D03*
D10*
%TO.P,J2\u002C0,3,Pin_3*%
%TO.N,D11*%
X134390080Y-50383113D03*
%TO.P,J2\u002C0,4,Pin_4*%
%TO.N,A2*%
X124390080Y-50383113D03*
%TD*%
%TO.P,J0\u002C0,1,Pin_1*%
%TO.N,D5*%
X74390080Y-40383113D03*
D11*
%TO.P,J0\u002C0,2,Pin_2*%
%TO.N,D9*%
X84390080Y-40383113D03*
D10*
%TO.P,J0\u002C0,3,Pin_3*%
%TO.N,D13*%
X84390080Y-50383113D03*
%TO.P,J0\u002C0,4,Pin_4*%
%TO.N,A3*%
X74390080Y-50383113D03*
%TD*%
%TO.P,J0\u002C3,1,Pin_1*%
%TO.N,D2*%
X74390080Y-115383113D03*
D11*
%TO.P,J0\u002C3,2,Pin_2*%
%TO.N,D9*%
X84390080Y-115383113D03*
D10*
%TO.P,J0\u002C3,3,Pin_3*%
%TO.N,D10*%
X84390080Y-125383113D03*
%TO.P,J0\u002C3,4,Pin_4*%
%TO.N,A0*%
X74390080Y-125383113D03*
%TD*%
%TO.P,J0\u002C1,1,Pin_1*%
%TO.N,D4*%
X74390080Y-65383113D03*
D11*
%TO.P,J0\u002C1,2,Pin_2*%
%TO.N,D9*%
X84390080Y-65383113D03*
D10*
%TO.P,J0\u002C1,3,Pin_3*%
%TO.N,D12*%
X84390080Y-75383113D03*
%TO.P,J0\u002C1,4,Pin_4*%
%TO.N,A2*%
X74390080Y-75383113D03*
%TD*%
%TO.P,J3\u002C3,1,Pin_1*%
%TO.N,D2*%
X149390080Y-115383113D03*
D11*
%TO.P,J3\u002C3,2,Pin_2*%
%TO.N,D6*%
X159390080Y-115383113D03*
D10*
%TO.P,J3\u002C3,3,Pin_3*%
%TO.N,D13*%
X159390080Y-125383113D03*
%TO.P,J3\u002C3,4,Pin_4*%
%TO.N,A2*%
X149390080Y-125383113D03*
%TD*%
%TO.P,J3\u002C2,1,Pin_1*%
%TO.N,D3*%
X149390080Y-90383113D03*
D11*
%TO.P,J3\u002C2,2,Pin_2*%
%TO.N,D6*%
X159390080Y-90383113D03*
D10*
%TO.P,J3\u002C2,3,Pin_3*%
%TO.N,D12*%
X159390080Y-100383113D03*
%TO.P,J3\u002C2,4,Pin_4*%
%TO.N,A3*%
X149390080Y-100383113D03*
%TD*%
D12*
%TO.P,A1,1,D1/TX*%
%TO.N,unconnected-(A1-Pad1)*%
X139700000Y-76454000D03*
D13*
%TO.P,A1,2,D0/RX*%
%TO.N,unconnected-(A1-Pad2)*%
X139700000Y-78994000D03*
%TO.P,A1,3,~{RESET}*%
%TO.N,unconnected-(A1-Pad3)*%
X139700000Y-81534000D03*
%TO.P,A1,4,GND*%
%TO.N,unconnected-(A1-Pad4)*%
X139700000Y-84074000D03*
%TO.P,A1,5,D2*%
%TO.N,D2*%
X139700000Y-86614000D03*
%TO.P,A1,6,D3*%
%TO.N,D3*%
X139700000Y-89154000D03*
%TO.P,A1,7,D4*%
%TO.N,D4*%
X139700000Y-91694000D03*
%TO.P,A1,8,D5*%
%TO.N,D5*%
X139700000Y-94234000D03*
%TO.P,A1,9,D6*%
%TO.N,D6*%
X139700000Y-96774000D03*
%TO.P,A1,10,D7*%
%TO.N,D7*%
X139700000Y-99314000D03*
%TO.P,A1,11,D8*%
%TO.N,D8*%
X139700000Y-101854000D03*
%TO.P,A1,12,D9*%
%TO.N,D9*%
X139700000Y-104394000D03*
%TO.P,A1,13,D10*%
%TO.N,D10*%
X139700000Y-106934000D03*
%TO.P,A1,14,D11*%
%TO.N,D11*%
X139700000Y-109474000D03*
%TO.P,A1,15,D12*%
%TO.N,D12*%
X139700000Y-112014000D03*
%TO.P,A1,16,D13*%
%TO.N,D13*%
X154940000Y-112014000D03*
%TO.P,A1,17,3V3*%
%TO.N,unconnected-(A1-Pad17)*%
X154940000Y-109474000D03*
%TO.P,A1,18,AREF*%
%TO.N,unconnected-(A1-Pad18)*%
X154940000Y-106934000D03*
%TO.P,A1,19,A0*%
%TO.N,A0*%
X154940000Y-104394000D03*
%TO.P,A1,20,A1*%
%TO.N,A1*%
X154940000Y-101854000D03*
%TO.P,A1,21,A2*%
%TO.N,A2*%
X154940000Y-99314000D03*
%TO.P,A1,22,A3*%
%TO.N,A3*%
X154940000Y-96774000D03*
%TO.P,A1,23,A4*%
%TO.N,unconnected-(A1-Pad23)*%
X154940000Y-94234000D03*
%TO.P,A1,24,A5*%
%TO.N,unconnected-(A1-Pad24)*%
X154940000Y-91694000D03*
%TO.P,A1,25,A6*%
%TO.N,unconnected-(A1-Pad25)*%
X154940000Y-89154000D03*
%TO.P,A1,26,A7*%
%TO.N,unconnected-(A1-Pad26)*%
X154940000Y-86614000D03*
%TO.P,A1,27,+5V*%
%TO.N,+5V*%
X154940000Y-84074000D03*
%TO.P,A1,28,~{RESET}*%
%TO.N,unconnected-(A1-Pad28)*%
X154940000Y-81534000D03*
%TO.P,A1,29,GND*%
%TO.N,GND*%
X154940000Y-78994000D03*
%TO.P,A1,30,VIN*%
%TO.N,unconnected-(A1-Pad30)*%
X154940000Y-76454000D03*
%TD*%
D10*
%TO.P,J1\u002C1,1,Pin_1*%
%TO.N,D4*%
X99390080Y-65383113D03*
D11*
%TO.P,J1\u002C1,2,Pin_2*%
%TO.N,D8*%
X109390080Y-65383113D03*
D10*
%TO.P,J1\u002C1,3,Pin_3*%
%TO.N,D13*%
X109390080Y-75383113D03*
%TO.P,J1\u002C1,4,Pin_4*%
%TO.N,A1*%
X99390080Y-75383113D03*
%TD*%
%TO.P,J0\u002C2,1,Pin_1*%
%TO.N,D3*%
X74390080Y-90383113D03*
D11*
%TO.P,J0\u002C2,2,Pin_2*%
%TO.N,D9*%
X84390080Y-90383113D03*
D10*
%TO.P,J0\u002C2,3,Pin_3*%
%TO.N,D11*%
X84390080Y-100383113D03*
%TO.P,J0\u002C2,4,Pin_4*%
%TO.N,A1*%
X74390080Y-100383113D03*
%TD*%
%TO.P,J3\u002C0,1,Pin_1*%
%TO.N,D5*%
X149390080Y-40383113D03*
D11*
%TO.P,J3\u002C0,2,Pin_2*%
%TO.N,D6*%
X159390080Y-40383113D03*
D10*
%TO.P,J3\u002C0,3,Pin_3*%
%TO.N,D10*%
X159390080Y-50383113D03*
%TO.P,J3\u002C0,4,Pin_4*%
%TO.N,A1*%
X149390080Y-50383113D03*
%TD*%
%TO.P,J1\u002C2,1,Pin_1*%
%TO.N,D3*%
X99390080Y-90383113D03*
D11*
%TO.P,J1\u002C2,2,Pin_2*%
%TO.N,D8*%
X109390080Y-90383113D03*
D10*
%TO.P,J1\u002C2,3,Pin_3*%
%TO.N,D10*%
X109390080Y-100383113D03*
%TO.P,J1\u002C2,4,Pin_4*%
%TO.N,A2*%
X99390080Y-100383113D03*
%TD*%
%TO.P,J1\u002C3,1,Pin_1*%
%TO.N,D2*%
X99390080Y-115383113D03*
D11*
%TO.P,J1\u002C3,2,Pin_2*%
%TO.N,D8*%
X109390080Y-115383113D03*
D10*
%TO.P,J1\u002C3,3,Pin_3*%
%TO.N,D11*%
X109390080Y-125383113D03*
%TO.P,J1\u002C3,4,Pin_4*%
%TO.N,A3*%
X99390080Y-125383113D03*
%TD*%
%TO.P,J2\u002C3,1,Pin_1*%
%TO.N,D2*%
X124390080Y-115383113D03*
D11*
%TO.P,J2\u002C3,2,Pin_2*%
%TO.N,D7*%
X134390080Y-115383113D03*
D10*
%TO.P,J2\u002C3,3,Pin_3*%
%TO.N,D12*%
X134390080Y-125383113D03*
%TO.P,J2\u002C3,4,Pin_4*%
%TO.N,A1*%
X124390080Y-125383113D03*
%TD*%
D14*
%TO.N,D2*%
X138694000Y-85598000D02*
X125222000Y-85598000D01*
X139710000Y-86614000D02*
X138694000Y-85598000D01*
X125222000Y-85598000D02*
X122174000Y-88646000D01*
X122174000Y-88646000D02*
X122174000Y-113167033D01*
X122174000Y-113167033D02*
X124390080Y-115383113D01*
%TO.N,D3*%
X137170000Y-86614000D02*
X139710000Y-89154000D01*
X124390080Y-88207920D02*
X125984000Y-86614000D01*
X124390080Y-90383113D02*
X124390080Y-88207920D01*
X125984000Y-86614000D02*
X137170000Y-86614000D01*
%TO.N,D4*%
X139710000Y-91694000D02*
X141630880Y-89773120D01*
X141630880Y-89773120D02*
X141630880Y-75590880D01*
X141630880Y-75590880D02*
X131423113Y-65383113D01*
X131423113Y-65383113D02*
X124390080Y-65383113D01*
%TO.N,D5*%
X142748000Y-47025193D02*
X142748000Y-91196000D01*
X142748000Y-91196000D02*
X139710000Y-94234000D01*
X149390080Y-40383113D02*
X142748000Y-47025193D01*
%TO.N,D6*%
X142240000Y-104140000D02*
X153483113Y-115383113D01*
X142240000Y-99314000D02*
X142240000Y-104140000D01*
X139710000Y-96774000D02*
X139710000Y-96784000D01*
X139710000Y-96784000D02*
X142240000Y-99314000D01*
X153483113Y-115383113D02*
X159390080Y-115383113D01*
%TO.N,D7*%
X134390080Y-40383113D02*
X130810000Y-43963193D01*
X133096000Y-114089033D02*
X134390080Y-115383113D01*
X130810000Y-61803033D02*
X134390080Y-65383113D01*
X139710000Y-99314000D02*
X133096000Y-105928000D01*
X133096000Y-105928000D02*
X133096000Y-114089033D01*
X130810000Y-43963193D02*
X130810000Y-61803033D01*
%TO.N,D8*%
X135382000Y-118872000D02*
X112878967Y-118872000D01*
X134620000Y-105624636D02*
X134620000Y-112649000D01*
X105664000Y-86657033D02*
X109390080Y-90383113D01*
X112878967Y-118872000D02*
X109390080Y-115383113D01*
X105664000Y-69109193D02*
X105664000Y-86657033D01*
X137414000Y-115443000D02*
X137414000Y-116840000D01*
X109390080Y-40383113D02*
X106426000Y-43347193D01*
X137414000Y-116840000D02*
X135382000Y-118872000D01*
X109390080Y-65383113D02*
X105664000Y-69109193D01*
X134620000Y-112649000D02*
X137414000Y-115443000D01*
X106426000Y-62419033D02*
X109390080Y-65383113D01*
X106426000Y-43347193D02*
X106426000Y-62419033D01*
X139710000Y-101854000D02*
X138390636Y-101854000D01*
X138390636Y-101854000D02*
X134620000Y-105624636D01*
%TO.N,D9*%
X135636000Y-119888000D02*
X88894967Y-119888000D01*
X88894967Y-119888000D02*
X84390080Y-115383113D01*
X136144000Y-112952364D02*
X138277120Y-115085484D01*
X136144000Y-106680000D02*
X136144000Y-112952364D01*
X139710000Y-104394000D02*
X138430000Y-104394000D01*
X138277120Y-117246880D02*
X135636000Y-119888000D01*
X138430000Y-104394000D02*
X136144000Y-106680000D01*
X138277120Y-115085484D02*
X138277120Y-117246880D01*
%TO.N,D10*%
X135840636Y-120904000D02*
X86614000Y-120904000D01*
X139710000Y-106934000D02*
X137668000Y-108976000D01*
X139140240Y-117604396D02*
X135840636Y-120904000D01*
X112776000Y-83566000D02*
X126207193Y-83566000D01*
X84390080Y-123127920D02*
X84390080Y-125383113D01*
X109390080Y-100383113D02*
X109390080Y-100209284D01*
X137668000Y-108976000D02*
X137668000Y-113255728D01*
X86614000Y-120904000D02*
X84390080Y-123127920D01*
X126207193Y-83566000D02*
X134390080Y-75383113D01*
X139140240Y-114727968D02*
X139140240Y-117604396D01*
X137668000Y-113255728D02*
X139140240Y-114727968D01*
X112776000Y-96823364D02*
X112776000Y-83566000D01*
X109390080Y-100209284D02*
X112776000Y-96823364D01*
%TO.N,D11*%
X165608000Y-43688000D02*
X165608000Y-54102000D01*
X159512000Y-119126000D02*
X165252880Y-119126000D01*
X153840629Y-114519993D02*
X143764000Y-104443364D01*
X143256000Y-35814000D02*
X72270101Y-35814000D01*
X84390080Y-104585920D02*
X78994000Y-109982000D01*
X134390080Y-44679920D02*
X143256000Y-35814000D01*
X69850000Y-38234101D02*
X69850000Y-109982000D01*
X69850000Y-109982000D02*
X69850000Y-127254000D01*
X72270101Y-35814000D02*
X69850000Y-38234101D01*
X84390080Y-100383113D02*
X84390080Y-104585920D01*
X134390080Y-50383113D02*
X134390080Y-44679920D01*
X156498007Y-114519993D02*
X153840629Y-114519993D01*
X156632233Y-116246233D02*
X159512000Y-119126000D01*
X165252880Y-119126000D02*
X165252880Y-114403516D01*
X69850000Y-127254000D02*
X72136000Y-129540000D01*
X163726484Y-112877120D02*
X158140880Y-112877120D01*
X143256000Y-35814000D02*
X161798000Y-35814000D01*
X153125597Y-116246233D02*
X156632233Y-116246233D01*
X143764000Y-104443364D02*
X143764000Y-102870000D01*
X165608000Y-54102000D02*
X165608000Y-69165193D01*
X143764000Y-103121604D02*
X143764000Y-47229829D01*
X139710000Y-109474000D02*
X146353364Y-109474000D01*
X143764000Y-47229829D02*
X147305829Y-43688000D01*
X158140880Y-112877120D02*
X156498007Y-114519993D01*
X72136000Y-129540000D02*
X108204000Y-129540000D01*
X146353364Y-109474000D02*
X153125597Y-116246233D01*
X147305829Y-43688000D02*
X165608000Y-43688000D01*
X165252880Y-114403516D02*
X163726484Y-112877120D01*
X165608000Y-69165193D02*
X159390080Y-75383113D01*
X108204000Y-129540000D02*
X109390080Y-128353920D01*
X78994000Y-109982000D02*
X69850000Y-109982000D01*
X161798000Y-35814000D02*
X165608000Y-39624000D01*
X165608000Y-39624000D02*
X165608000Y-43688000D01*
X109390080Y-128353920D02*
X109390080Y-125383113D01*
%TO.N,D13*%
X111506000Y-77499033D02*
X109390080Y-75383113D01*
X91579398Y-38468602D02*
X110183098Y-38468602D01*
X131064000Y-103709193D02*
X131064000Y-115824000D01*
X159390080Y-125383113D02*
X162398887Y-125383113D01*
X106680000Y-108204000D02*
X106680000Y-100428091D01*
X111506000Y-64791504D02*
X111506000Y-73267193D01*
X111407278Y-39692782D02*
X111407278Y-45665842D01*
X107442000Y-49631120D02*
X107442000Y-60727504D01*
X111407278Y-45665842D02*
X107442000Y-49631120D01*
X164084000Y-112014000D02*
X154950000Y-112014000D01*
X162398887Y-125383113D02*
X166116000Y-121666000D01*
X84390080Y-50383113D02*
X84390080Y-45657920D01*
X110183098Y-38468602D02*
X111407278Y-39692782D01*
X131064000Y-115824000D02*
X128879120Y-118008880D01*
X166116000Y-114046000D02*
X164084000Y-112014000D01*
X128879120Y-118008880D02*
X116484880Y-118008880D01*
X166116000Y-121666000D02*
X166116000Y-114046000D01*
X110744000Y-96266000D02*
X111506000Y-95504000D01*
X106680000Y-100428091D02*
X110744000Y-96364091D01*
X111506000Y-95504000D02*
X111506000Y-77499033D01*
X111506000Y-73267193D02*
X109390080Y-75383113D01*
X84390080Y-45657920D02*
X91579398Y-38468602D01*
X134390080Y-100383113D02*
X131064000Y-103709193D01*
X116484880Y-118008880D02*
X106680000Y-108204000D01*
X107442000Y-60727504D02*
X111506000Y-64791504D01*
X110744000Y-96364091D02*
X110744000Y-96266000D01*
%TO.N,A0*%
X146304000Y-104394000D02*
X145288000Y-103378000D01*
X154950000Y-104394000D02*
X146304000Y-104394000D01*
X149390080Y-77177920D02*
X149390080Y-75383113D01*
X145288000Y-103378000D02*
X145288000Y-81280000D01*
X145288000Y-81280000D02*
X149390080Y-77177920D01*
%TO.N,A1*%
X97336887Y-75383113D02*
X99390080Y-75383113D01*
X92202000Y-94742000D02*
X92202000Y-80518000D01*
X102665364Y-127762000D02*
X73152000Y-127762000D01*
X77999193Y-96774000D02*
X74390080Y-100383113D01*
X154940000Y-101854000D02*
X152908000Y-101854000D01*
X99390080Y-75383113D02*
X99390080Y-76123920D01*
X152908000Y-101854000D02*
X151231120Y-103530880D01*
X85548636Y-96774000D02*
X77999193Y-96774000D01*
X73152000Y-127762000D02*
X71882000Y-126492000D01*
X92202000Y-80518000D02*
X97336887Y-75383113D01*
X124390080Y-125383113D02*
X121333847Y-122326880D01*
X80113516Y-112623120D02*
X87985120Y-104751516D01*
X71882000Y-126492000D02*
X71882000Y-112623120D01*
X121333847Y-122326880D02*
X108100484Y-122326880D01*
X146822007Y-50383113D02*
X149390080Y-50383113D01*
X151892000Y-73152000D02*
X144627120Y-65887120D01*
X87985120Y-99210484D02*
X87732318Y-98957682D01*
X87732318Y-98957682D02*
X85548636Y-96774000D01*
X108100484Y-122326880D02*
X102665364Y-127762000D01*
X87986318Y-98957682D02*
X92202000Y-94742000D01*
X146151120Y-82194880D02*
X151892000Y-76454000D01*
X87985120Y-104751516D02*
X87985120Y-99210484D01*
X146151120Y-102971120D02*
X146151120Y-82194880D01*
X146710880Y-103530880D02*
X146151120Y-102971120D01*
X87732318Y-98957682D02*
X87986318Y-98957682D01*
X144627120Y-65887120D02*
X144627120Y-52578000D01*
X71882000Y-112623120D02*
X80113516Y-112623120D01*
X151892000Y-76454000D02*
X151892000Y-73152000D01*
X151231120Y-103530880D02*
X146710880Y-103530880D01*
X144627120Y-52578000D02*
X146822007Y-50383113D01*
%TO.N,A2*%
X163526636Y-110236000D02*
X166979120Y-113688484D01*
X161694484Y-128422880D02*
X152429847Y-128422880D01*
X166979120Y-123138244D02*
X161694484Y-128422880D01*
X157734000Y-110236000D02*
X163526636Y-110236000D01*
X166979120Y-113688484D02*
X166979120Y-123138244D01*
X152429847Y-128422880D02*
X149390080Y-125383113D01*
X157734000Y-102108000D02*
X157734000Y-110236000D01*
X154940000Y-99314000D02*
X157734000Y-102108000D01*
%TO.N,A3*%
X152999193Y-96774000D02*
X149390080Y-100383113D01*
X154940000Y-96774000D02*
X152999193Y-96774000D01*
%TO.N,D12*%
X87122000Y-104394000D02*
X87122000Y-99568000D01*
X71120000Y-38862000D02*
X71120000Y-66802000D01*
X167894000Y-108887033D02*
X159390080Y-100383113D01*
X79701113Y-75383113D02*
X84390080Y-75383113D01*
X113030000Y-39370000D02*
X110744000Y-37084000D01*
X85344000Y-97790000D02*
X82804000Y-97790000D01*
X71120000Y-66802000D02*
X79701113Y-75383113D01*
X109390080Y-50383113D02*
X113030000Y-46743193D01*
X130233193Y-129540000D02*
X117602000Y-129540000D01*
X117602000Y-129540000D02*
X111252000Y-123190000D01*
X72898000Y-37084000D02*
X71120000Y-38862000D01*
X70866000Y-111760000D02*
X79756000Y-111760000D01*
X70866000Y-126746000D02*
X70866000Y-111760000D01*
X72796880Y-128676880D02*
X70866000Y-126746000D01*
X74422000Y-106172000D02*
X71120000Y-106172000D01*
X134390080Y-125383113D02*
X130233193Y-129540000D01*
X138176000Y-129286000D02*
X162052000Y-129286000D01*
X79756000Y-111760000D02*
X87122000Y-104394000D01*
X141732000Y-114036000D02*
X141732000Y-127508000D01*
X110744000Y-37084000D02*
X72898000Y-37084000D01*
X108458000Y-123190000D02*
X102971120Y-128676880D01*
X111252000Y-123190000D02*
X108458000Y-123190000D01*
X167894000Y-123444000D02*
X167894000Y-108887033D01*
X82804000Y-97790000D02*
X74422000Y-106172000D01*
X102971120Y-128676880D02*
X72796880Y-128676880D01*
X141732000Y-127508000D02*
X140208000Y-129032000D01*
X87122000Y-99568000D02*
X85344000Y-97790000D01*
X134390080Y-125500080D02*
X138176000Y-129286000D01*
X113030000Y-46743193D02*
X113030000Y-39370000D01*
X71120000Y-106172000D02*
X71120000Y-66802000D01*
X162052000Y-129286000D02*
X167894000Y-123444000D01*
X134390080Y-125383113D02*
X134390080Y-125500080D01*
X139710000Y-112014000D02*
X141732000Y-114036000D01*
%TD*%
M02*
