M48
; DRILL file {KiCad (6.0.4)} date Tue Aug 16 14:10:54 2022
; FORMAT={-:-/ absolute / inch / decimal}
; #@! TF.CreationDate,2022-08-16T14:10:54-04:00
; #@! TF.GenerationSoftware,Kicad,Pcbnew,(6.0.4)
; #@! TF.FileFunction,MixedPlating,1,2
FMAT,2
INCH
; #@! TA.AperFunction,Plated,PTH,ComponentDrill
T1C0.0394
; #@! TA.AperFunction,Plated,PTH,ComponentDrill
T2C0.0413
; #@! TA.AperFunction,NonPlated,NPTH,ComponentDrill
T3C0.1260
%
G90
G05
T1
X5.5Y-3.01
X5.5Y-3.11
X5.5Y-3.21
X5.5Y-3.31
X5.5Y-3.41
X5.5Y-3.51
X5.5Y-3.61
X5.5Y-3.71
X5.5Y-3.81
X5.5Y-3.91
X5.5Y-4.01
X5.5Y-4.11
X5.5Y-4.21
X5.5Y-4.31
X5.5Y-4.41
X6.1Y-3.01
X6.1Y-3.11
X6.1Y-3.21
X6.1Y-3.31
X6.1Y-3.41
X6.1Y-3.51
X6.1Y-3.61
X6.1Y-3.71
X6.1Y-3.81
X6.1Y-3.91
X6.1Y-4.01
X6.1Y-4.11
X6.1Y-4.21
X6.1Y-4.31
X6.1Y-4.41
T2
X2.9287Y-1.5899
X2.9287Y-1.9836
X2.9287Y-2.5741
X2.9287Y-2.9678
X2.9287Y-3.5584
X2.9287Y-3.9521
X2.9287Y-4.5426
X2.9287Y-4.9363
X3.3224Y-1.5899
X3.3224Y-1.9836
X3.3224Y-2.5741
X3.3224Y-2.9678
X3.3224Y-3.5584
X3.3224Y-3.9521
X3.3224Y-4.5426
X3.3224Y-4.9363
X3.913Y-1.5899
X3.913Y-1.9836
X3.913Y-2.5741
X3.913Y-2.9678
X3.913Y-3.5584
X3.913Y-3.9521
X3.913Y-4.5426
X3.913Y-4.9363
X4.3067Y-1.5899
X4.3067Y-1.9836
X4.3067Y-2.5741
X4.3067Y-2.9678
X4.3067Y-3.5584
X4.3067Y-3.9521
X4.3067Y-4.5426
X4.3067Y-4.9363
X4.8972Y-1.5899
X4.8972Y-1.9836
X4.8972Y-2.5741
X4.8972Y-2.9678
X4.8972Y-3.5584
X4.8972Y-3.9521
X4.8972Y-4.5426
X4.8972Y-4.9363
X5.2909Y-1.5899
X5.2909Y-1.9836
X5.2909Y-2.5741
X5.2909Y-2.9678
X5.2909Y-3.5584
X5.2909Y-3.9521
X5.2909Y-4.5426
X5.2909Y-4.9363
X5.8815Y-1.5899
X5.8815Y-1.9836
X5.8815Y-2.5741
X5.8815Y-2.9678
X5.8815Y-3.5584
X5.8815Y-3.9521
X5.8815Y-4.5426
X5.8815Y-4.9363
X6.2752Y-1.5899
X6.2752Y-1.9836
X6.2752Y-2.5741
X6.2752Y-2.9678
X6.2752Y-3.5584
X6.2752Y-3.9521
X6.2752Y-4.5426
X6.2752Y-4.9363
T3
X2.6161Y-1.5235
X2.6161Y-5.0668
X6.6712Y-1.5235
X6.6712Y-5.0668
T0
M30
