%TF.GenerationSoftware,KiCad,Pcbnew,(6.0.4)*%
%TF.CreationDate,2022-08-13T23:58:51-04:00*%
%TF.ProjectId,PCB,5043422e-6b69-4636-9164-5f7063625858,rev?*%
%TF.SameCoordinates,Original*%
%TF.FileFunction,Copper,L1,Top*%
%TF.FilePolarity,Positive*%
%FSLAX46Y46*%
G04 Gerber Fmt 4.6, Leading zero omitted, Abs format (unit mm)*
G04 Created by KiCad (PCBNEW (6.0.4)) date 2022-08-13 23:58:51*
%MOMM*%
%LPD*%
G01*
G04 APERTURE LIST*
%TA.AperFunction,ComponentPad*%
%ADD10O,1.070000X1.800000*%
%TD*%
%TA.AperFunction,ComponentPad*%
%ADD11O,1.010400X1.800000*%
%TD*%
%TA.AperFunction,ComponentPad*%
%ADD12R,1.070000X1.800000*%
%TD*%
%TA.AperFunction,ComponentPad*%
%ADD13O,1.600000X1.600000*%
%TD*%
%TA.AperFunction,ComponentPad*%
%ADD14R,1.600000X1.600000*%
%TD*%
%TA.AperFunction,ViaPad*%
%ADD15C,3.000000*%
%TD*%
%TA.AperFunction,Conductor*%
%ADD16C,0.457200*%
%TD*%
G04 APERTURE END LIST*
D10*
%TO.P,J1\u002C0,4,Pin_4*%
%TO.N,A0*%
X36941000Y-15687000D03*
D11*
%TO.P,J1\u002C0,3,Pin_3*%
%TO.N,D12*%
X46911200Y-15687000D03*
D10*
%TO.P,J1\u002C0,2,Pin_2*%
%TO.N,D8*%
X46941000Y-5687000D03*
D12*
%TO.P,J1\u002C0,1,Pin_1*%
%TO.N,D5*%
X36941000Y-5687000D03*
%TD*%
D10*
%TO.P,J2\u002C2,4,Pin_4*%
%TO.N,A0*%
X61941000Y-65687000D03*
D11*
%TO.P,J2\u002C2,3,Pin_3*%
%TO.N,D13*%
X71911200Y-65687000D03*
D10*
%TO.P,J2\u002C2,2,Pin_2*%
%TO.N,D7*%
X71941000Y-55687000D03*
D12*
%TO.P,J2\u002C2,1,Pin_1*%
%TO.N,D3*%
X61941000Y-55687000D03*
%TD*%
D10*
%TO.P,J3\u002C1,4,Pin_4*%
%TO.N,A0*%
X86941000Y-40687000D03*
D11*
%TO.P,J3\u002C1,3,Pin_3*%
%TO.N,D11*%
X96911200Y-40687000D03*
D10*
%TO.P,J3\u002C1,2,Pin_2*%
%TO.N,D6*%
X96941000Y-30687000D03*
D12*
%TO.P,J3\u002C1,1,Pin_1*%
%TO.N,D4*%
X86941000Y-30687000D03*
%TD*%
D10*
%TO.P,J2\u002C1,4,Pin_4*%
%TO.N,A3*%
X61941000Y-40687000D03*
D11*
%TO.P,J2\u002C1,3,Pin_3*%
%TO.N,D10*%
X71911200Y-40687000D03*
D10*
%TO.P,J2\u002C1,2,Pin_2*%
%TO.N,D7*%
X71941000Y-30687000D03*
D12*
%TO.P,J2\u002C1,1,Pin_1*%
%TO.N,D4*%
X61941000Y-30687000D03*
%TD*%
D10*
%TO.P,J2\u002C0,4,Pin_4*%
%TO.N,A2*%
X61941000Y-15687000D03*
D11*
%TO.P,J2\u002C0,3,Pin_3*%
%TO.N,D11*%
X71911200Y-15687000D03*
D10*
%TO.P,J2\u002C0,2,Pin_2*%
%TO.N,D7*%
X71941000Y-5687000D03*
D12*
%TO.P,J2\u002C0,1,Pin_1*%
%TO.N,D5*%
X61941000Y-5687000D03*
%TD*%
D10*
%TO.P,J0\u002C0,4,Pin_4*%
%TO.N,A3*%
X11941000Y-15687000D03*
D11*
%TO.P,J0\u002C0,3,Pin_3*%
%TO.N,D13*%
X21911200Y-15687000D03*
D10*
%TO.P,J0\u002C0,2,Pin_2*%
%TO.N,D9*%
X21941000Y-5687000D03*
D12*
%TO.P,J0\u002C0,1,Pin_1*%
%TO.N,D5*%
X11941000Y-5687000D03*
%TD*%
D10*
%TO.P,J0\u002C3,4,Pin_4*%
%TO.N,A0*%
X11941000Y-90687000D03*
D11*
%TO.P,J0\u002C3,3,Pin_3*%
%TO.N,D10*%
X21911200Y-90687000D03*
D10*
%TO.P,J0\u002C3,2,Pin_2*%
%TO.N,D9*%
X21941000Y-80687000D03*
D12*
%TO.P,J0\u002C3,1,Pin_1*%
%TO.N,D2*%
X11941000Y-80687000D03*
%TD*%
D10*
%TO.P,J0\u002C1,4,Pin_4*%
%TO.N,A2*%
X11941000Y-40687000D03*
D11*
%TO.P,J0\u002C1,3,Pin_3*%
%TO.N,D12*%
X21911200Y-40687000D03*
D10*
%TO.P,J0\u002C1,2,Pin_2*%
%TO.N,D9*%
X21941000Y-30687000D03*
D12*
%TO.P,J0\u002C1,1,Pin_1*%
%TO.N,D4*%
X11941000Y-30687000D03*
%TD*%
D10*
%TO.P,J3\u002C3,4,Pin_4*%
%TO.N,A2*%
X86941000Y-90687000D03*
D11*
%TO.P,J3\u002C3,3,Pin_3*%
%TO.N,D13*%
X96911200Y-90687000D03*
D10*
%TO.P,J3\u002C3,2,Pin_2*%
%TO.N,D6*%
X96941000Y-80687000D03*
D12*
%TO.P,J3\u002C3,1,Pin_1*%
%TO.N,D2*%
X86941000Y-80687000D03*
%TD*%
D10*
%TO.P,J3\u002C2,4,Pin_4*%
%TO.N,A3*%
X86941000Y-65687000D03*
D11*
%TO.P,J3\u002C2,3,Pin_3*%
%TO.N,D12*%
X96911200Y-65687000D03*
D10*
%TO.P,J3\u002C2,2,Pin_2*%
%TO.N,D6*%
X96941000Y-55687000D03*
D12*
%TO.P,J3\u002C2,1,Pin_1*%
%TO.N,D3*%
X86941000Y-55687000D03*
%TD*%
D13*
%TO.P,A1,30,VIN*%
%TO.N,unconnected-(A1-Pad30)*%
X93527000Y-51383000D03*
%TO.P,A1,29,GND*%
%TO.N,GND*%
X93527000Y-53923000D03*
%TO.P,A1,28,~{RESET}*%
%TO.N,unconnected-(A1-Pad28)*%
X93527000Y-56463000D03*
%TO.P,A1,27,+5V*%
%TO.N,+5V*%
X93527000Y-59003000D03*
%TO.P,A1,26,A7*%
%TO.N,unconnected-(A1-Pad26)*%
X93527000Y-61543000D03*
%TO.P,A1,25,A6*%
%TO.N,unconnected-(A1-Pad25)*%
X93527000Y-64083000D03*
%TO.P,A1,24,A5*%
%TO.N,unconnected-(A1-Pad24)*%
X93527000Y-66623000D03*
%TO.P,A1,23,A4*%
%TO.N,unconnected-(A1-Pad23)*%
X93527000Y-69163000D03*
%TO.P,A1,22,A3*%
%TO.N,A3*%
X93527000Y-71703000D03*
%TO.P,A1,21,A2*%
%TO.N,A2*%
X93527000Y-74243000D03*
%TO.P,A1,20,A1*%
%TO.N,A1*%
X93527000Y-76783000D03*
%TO.P,A1,19,A0*%
%TO.N,A0*%
X93527000Y-79323000D03*
%TO.P,A1,18,AREF*%
%TO.N,unconnected-(A1-Pad18)*%
X93527000Y-81863000D03*
%TO.P,A1,17,3V3*%
%TO.N,unconnected-(A1-Pad17)*%
X93527000Y-84403000D03*
%TO.P,A1,16,D13*%
%TO.N,D13*%
X93527000Y-86943000D03*
%TO.P,A1,15,D12*%
%TO.N,D12*%
X78287000Y-86943000D03*
%TO.P,A1,14,D11*%
%TO.N,D11*%
X78287000Y-84403000D03*
%TO.P,A1,13,D10*%
%TO.N,D10*%
X78287000Y-81863000D03*
%TO.P,A1,12,D9*%
%TO.N,D9*%
X78287000Y-79323000D03*
%TO.P,A1,11,D8*%
%TO.N,D8*%
X78287000Y-76783000D03*
%TO.P,A1,10,D7*%
%TO.N,D7*%
X78287000Y-74243000D03*
%TO.P,A1,9,D6*%
%TO.N,D6*%
X78287000Y-71703000D03*
%TO.P,A1,8,D5*%
%TO.N,D5*%
X78287000Y-69163000D03*
%TO.P,A1,7,D4*%
%TO.N,D4*%
X78287000Y-66623000D03*
%TO.P,A1,6,D3*%
%TO.N,D3*%
X78287000Y-64083000D03*
%TO.P,A1,5,D2*%
%TO.N,D2*%
X78287000Y-61543000D03*
%TO.P,A1,4,GND*%
%TO.N,unconnected-(A1-Pad4)*%
X78287000Y-59003000D03*
%TO.P,A1,3,~{RESET}*%
%TO.N,unconnected-(A1-Pad3)*%
X78287000Y-56463000D03*
%TO.P,A1,2,D0/RX*%
%TO.N,unconnected-(A1-Pad2)*%
X78287000Y-53923000D03*
D14*
%TO.P,A1,1,D1/TX*%
%TO.N,unconnected-(A1-Pad1)*%
X78287000Y-51383000D03*
%TD*%
D10*
%TO.P,J1\u002C1,4,Pin_4*%
%TO.N,A1*%
X36941000Y-40687000D03*
D11*
%TO.P,J1\u002C1,3,Pin_3*%
%TO.N,D13*%
X46911200Y-40687000D03*
D10*
%TO.P,J1\u002C1,2,Pin_2*%
%TO.N,D8*%
X46941000Y-30687000D03*
D12*
%TO.P,J1\u002C1,1,Pin_1*%
%TO.N,D4*%
X36941000Y-30687000D03*
%TD*%
D10*
%TO.P,J0\u002C2,4,Pin_4*%
%TO.N,A1*%
X11941000Y-65687000D03*
D11*
%TO.P,J0\u002C2,3,Pin_3*%
%TO.N,D11*%
X21911200Y-65687000D03*
D10*
%TO.P,J0\u002C2,2,Pin_2*%
%TO.N,D9*%
X21941000Y-55687000D03*
D12*
%TO.P,J0\u002C2,1,Pin_1*%
%TO.N,D3*%
X11941000Y-55687000D03*
%TD*%
D10*
%TO.P,J3\u002C0,4,Pin_4*%
%TO.N,A1*%
X86941000Y-15687000D03*
D11*
%TO.P,J3\u002C0,3,Pin_3*%
%TO.N,D10*%
X96911200Y-15687000D03*
D10*
%TO.P,J3\u002C0,2,Pin_2*%
%TO.N,D6*%
X96941000Y-5687000D03*
D12*
%TO.P,J3\u002C0,1,Pin_1*%
%TO.N,D5*%
X86941000Y-5687000D03*
%TD*%
D10*
%TO.P,J1\u002C2,4,Pin_4*%
%TO.N,A2*%
X36941000Y-65687000D03*
D11*
%TO.P,J1\u002C2,3,Pin_3*%
%TO.N,D10*%
X46911200Y-65687000D03*
D10*
%TO.P,J1\u002C2,2,Pin_2*%
%TO.N,D8*%
X46941000Y-55687000D03*
D12*
%TO.P,J1\u002C2,1,Pin_1*%
%TO.N,D3*%
X36941000Y-55687000D03*
%TD*%
D10*
%TO.P,J1\u002C3,4,Pin_4*%
%TO.N,A3*%
X36941000Y-90687000D03*
D11*
%TO.P,J1\u002C3,3,Pin_3*%
%TO.N,D11*%
X46911200Y-90687000D03*
D10*
%TO.P,J1\u002C3,2,Pin_2*%
%TO.N,D8*%
X46941000Y-80687000D03*
D12*
%TO.P,J1\u002C3,1,Pin_1*%
%TO.N,D2*%
X36941000Y-80687000D03*
%TD*%
D10*
%TO.P,J2\u002C3,4,Pin_4*%
%TO.N,A1*%
X61941000Y-90687000D03*
D11*
%TO.P,J2\u002C3,3,Pin_3*%
%TO.N,D12*%
X71911200Y-90687000D03*
D10*
%TO.P,J2\u002C3,2,Pin_2*%
%TO.N,D7*%
X71941000Y-80687000D03*
D12*
%TO.P,J2\u002C3,1,Pin_1*%
%TO.N,D2*%
X61941000Y-80687000D03*
%TD*%
D15*
%TO.N,A3*%
X83865000Y-51891000D03*
%TD*%
D16*
%TO.N,D2*%
X58211000Y-94055000D02*
X58211000Y-84417000D01*
X34081000Y-94055000D02*
X34081000Y-83547000D01*
X83103000Y-92686272D02*
X83103000Y-84525000D01*
X34081000Y-83547000D02*
X36941000Y-80687000D01*
X34335000Y-94055000D02*
X81734272Y-94055000D01*
X13245000Y-94055000D02*
X34081000Y-94055000D01*
X11941000Y-80687000D02*
X11941000Y-81651000D01*
X58211000Y-84417000D02*
X61941000Y-80687000D01*
X9189000Y-84403000D02*
X9189000Y-89999000D01*
X83103000Y-84525000D02*
X86941000Y-80687000D01*
X11941000Y-81651000D02*
X9189000Y-84403000D01*
X81734272Y-94055000D02*
X83103000Y-92686272D01*
X9189000Y-89999000D02*
X13245000Y-94055000D01*
%TO.N,D3*%
X79293000Y-64083000D02*
X81325000Y-62051000D01*
X59387000Y-58241000D02*
X61212000Y-56416000D01*
X61212000Y-56416000D02*
X65323000Y-60527000D01*
X81325000Y-62051000D02*
X81325000Y-59003000D01*
X81325000Y-59003000D02*
X84641000Y-55687000D01*
X76245000Y-64083000D02*
X78287000Y-64083000D01*
X84641000Y-55687000D02*
X86941000Y-55687000D01*
X36941000Y-55687000D02*
X39495000Y-58241000D01*
X61212000Y-56416000D02*
X61941000Y-55687000D01*
X14495000Y-58241000D02*
X34387000Y-58241000D01*
X34387000Y-58241000D02*
X36941000Y-55687000D01*
X11941000Y-55687000D02*
X14495000Y-58241000D01*
X39495000Y-58241000D02*
X59387000Y-58241000D01*
X72689000Y-60527000D02*
X76245000Y-64083000D01*
X65323000Y-60527000D02*
X72689000Y-60527000D01*
X78287000Y-64083000D02*
X79293000Y-64083000D01*
%TO.N,D4*%
X61941000Y-30635000D02*
X64815000Y-27761000D01*
X88110520Y-31856520D02*
X86941000Y-30687000D01*
X39867000Y-27761000D02*
X59015000Y-27761000D01*
X78287000Y-66623000D02*
X79418370Y-66623000D01*
X84015000Y-27761000D02*
X86941000Y-30687000D01*
X11941000Y-30687000D02*
X11941000Y-32170386D01*
X16320494Y-36549880D02*
X31078120Y-36549880D01*
X61941000Y-30687000D02*
X61941000Y-30635000D01*
X79418370Y-66623000D02*
X88110520Y-57930850D01*
X31078120Y-36549880D02*
X36941000Y-30687000D01*
X36941000Y-30687000D02*
X39867000Y-27761000D01*
X88110520Y-57930850D02*
X88110520Y-31856520D01*
X59015000Y-27761000D02*
X61941000Y-30687000D01*
X11941000Y-32170386D02*
X16320494Y-36549880D01*
X64815000Y-27761000D02*
X84015000Y-27761000D01*
%TO.N,D5*%
X36941000Y-5687000D02*
X40013000Y-2615000D01*
X58869000Y-2615000D02*
X61941000Y-5687000D01*
X11941000Y-5687000D02*
X15013000Y-2615000D01*
X88973640Y-58476360D02*
X78287000Y-69163000D01*
X83869000Y-2615000D02*
X86941000Y-5687000D01*
X65013000Y-2615000D02*
X83869000Y-2615000D01*
X33869000Y-2615000D02*
X36941000Y-5687000D01*
X61941000Y-5687000D02*
X65013000Y-2615000D01*
X15013000Y-2615000D02*
X33869000Y-2615000D01*
X40013000Y-2615000D02*
X58869000Y-2615000D01*
X88973640Y-7719640D02*
X88973640Y-58476360D01*
X86941000Y-5687000D02*
X88973640Y-7719640D01*
%TO.N,D6*%
X96941000Y-55687000D02*
X96941000Y-56077000D01*
X99613000Y-53015000D02*
X96941000Y-55687000D01*
X97703000Y-30687000D02*
X96941000Y-30687000D01*
X96819000Y-43001000D02*
X99613000Y-43001000D01*
X96941000Y-30687000D02*
X97459000Y-30687000D01*
X99613000Y-43001000D02*
X99613000Y-53015000D01*
X92630760Y-44779000D02*
X95041000Y-44779000D01*
X99613000Y-32841000D02*
X99613000Y-43001000D01*
X97459000Y-30687000D02*
X99613000Y-32841000D01*
X78287000Y-71703000D02*
X89836760Y-60153240D01*
X99359000Y-78269000D02*
X96941000Y-80687000D01*
X99359000Y-58495000D02*
X99359000Y-78269000D01*
X96941000Y-56077000D02*
X99359000Y-58495000D01*
X95041000Y-44779000D02*
X96819000Y-43001000D01*
X89836760Y-60153240D02*
X89836760Y-47573000D01*
X99613000Y-28777000D02*
X97703000Y-30687000D01*
X89836760Y-47573000D02*
X92630760Y-44779000D01*
X99613000Y-8359000D02*
X99613000Y-28777000D01*
X96941000Y-5687000D02*
X99613000Y-8359000D01*
%TO.N,D7*%
X74975000Y-53669000D02*
X72957000Y-55687000D01*
X74975000Y-33721000D02*
X74975000Y-53669000D01*
X71941000Y-30687000D02*
X74975000Y-33721000D01*
X72957000Y-55687000D02*
X71941000Y-55687000D01*
%TO.N,D8*%
X70172484Y-61392516D02*
X54274000Y-77291000D01*
X50337000Y-34083000D02*
X50337000Y-52291000D01*
X77007000Y-76783000D02*
X75991000Y-75767000D01*
X54274000Y-77291000D02*
X50337000Y-77291000D01*
X72333880Y-61392516D02*
X70172484Y-61392516D01*
X78287000Y-76783000D02*
X77007000Y-76783000D01*
X50337000Y-77291000D02*
X46941000Y-80687000D01*
X46941000Y-30687000D02*
X50337000Y-34083000D01*
X50337000Y-52291000D02*
X46941000Y-55687000D01*
X75991000Y-64946120D02*
X75887484Y-64946120D01*
X75887484Y-64946120D02*
X72333880Y-61392516D01*
X75991000Y-75767000D02*
X75991000Y-64946120D01*
%TO.N,D9*%
X7665000Y-75513000D02*
X9951000Y-77799000D01*
X18907000Y-52653000D02*
X21941000Y-55687000D01*
X7665000Y-23443000D02*
X19349000Y-23443000D01*
X7665000Y-28015000D02*
X7665000Y-23443000D01*
X7665000Y-28015000D02*
X7665000Y-52653000D01*
X20187000Y-7441000D02*
X9189000Y-7441000D01*
X21941000Y-5687000D02*
X20187000Y-7441000D01*
X7665000Y-8965000D02*
X7665000Y-28015000D01*
X7665000Y-52653000D02*
X7665000Y-75513000D01*
X9189000Y-7441000D02*
X7665000Y-8965000D01*
X19349000Y-23443000D02*
X21941000Y-26035000D01*
X19053000Y-77799000D02*
X21941000Y-80687000D01*
X21941000Y-26035000D02*
X21941000Y-30687000D01*
X9951000Y-77799000D02*
X19053000Y-77799000D01*
X7665000Y-52653000D02*
X18907000Y-52653000D01*
%TO.N,D11*%
X28893000Y-65687000D02*
X46941000Y-83735000D01*
X52521880Y-78154120D02*
X46941000Y-83735000D01*
X71927000Y-62255636D02*
X70530000Y-62255636D01*
X54631516Y-78154120D02*
X52521880Y-78154120D01*
X75127880Y-65456516D02*
X71927000Y-62255636D01*
X78287000Y-84403000D02*
X75991000Y-84403000D01*
X70530000Y-62255636D02*
X54631516Y-78154120D01*
X21941000Y-65687000D02*
X28893000Y-65687000D01*
X75127880Y-83539880D02*
X75127880Y-65456516D01*
X75991000Y-84403000D02*
X75127880Y-83539880D01*
X46941000Y-83735000D02*
X46941000Y-90687000D01*
%TO.N,D13*%
X81428516Y-93140120D02*
X62375169Y-93140120D01*
X89707000Y-80593000D02*
X88183000Y-79069000D01*
X60771480Y-84685884D02*
X71941000Y-73516364D01*
X89707000Y-83453000D02*
X89707000Y-80593000D01*
X62375169Y-93140120D02*
X60771480Y-91536431D01*
X93197000Y-86943000D02*
X89707000Y-83453000D01*
X82239880Y-92328756D02*
X81428516Y-93140120D01*
X60771480Y-91536431D02*
X60771480Y-84685884D01*
X93527000Y-86943000D02*
X93197000Y-86943000D01*
X71941000Y-73516364D02*
X71941000Y-65687000D01*
X86151000Y-79069000D02*
X82239880Y-82980120D01*
X82239880Y-82980120D02*
X82239880Y-92328756D01*
X88183000Y-79069000D02*
X86151000Y-79069000D01*
%TO.N,A0*%
X10771489Y-79152489D02*
X12828489Y-79152489D01*
X12828489Y-79152489D02*
X13761000Y-80085000D01*
X93527000Y-79323000D02*
X98050920Y-83846920D01*
X13761000Y-80085000D02*
X13761000Y-88867000D01*
X13761000Y-88867000D02*
X11941000Y-90687000D01*
X8325880Y-90356516D02*
X8325880Y-81598098D01*
X8325880Y-81598098D02*
X10771489Y-79152489D01*
X98050920Y-83846920D02*
X98050920Y-91553887D01*
X94686687Y-94918120D02*
X12887484Y-94918120D01*
X12887484Y-94918120D02*
X8325880Y-90356516D01*
X98050920Y-91553887D02*
X94686687Y-94918120D01*
%TO.N,A1*%
X31084760Y-34059240D02*
X46933880Y-18210120D01*
X56838682Y-83085296D02*
X68879000Y-71044978D01*
X10254360Y-31704382D02*
X10254360Y-26032360D01*
X46882120Y-92785000D02*
X56838682Y-92785000D01*
X46933880Y-18210120D02*
X84417880Y-18210120D01*
X45771480Y-85425480D02*
X45771480Y-91674360D01*
X61941000Y-84737000D02*
X61941000Y-90687000D01*
X74264760Y-72413240D02*
X61941000Y-84737000D01*
X56838682Y-92785000D02*
X56838682Y-83085296D01*
X63166000Y-92277000D02*
X81071000Y-92277000D01*
X17876760Y-57377880D02*
X33928120Y-57377880D01*
X68879000Y-71044978D02*
X68879000Y-66418364D01*
X61941000Y-90687000D02*
X61941000Y-91052000D01*
X81071000Y-92277000D02*
X81376760Y-91971240D01*
X18916244Y-26672152D02*
X18916244Y-32122467D01*
X8681000Y-55447000D02*
X10611880Y-53516120D01*
X37281880Y-76935880D02*
X45771480Y-85425480D01*
X33667000Y-37413000D02*
X15962978Y-37413000D01*
X8681000Y-64083000D02*
X8681000Y-55447000D01*
X35605000Y-42023000D02*
X36941000Y-40687000D01*
X36941000Y-40687000D02*
X33667000Y-37413000D01*
X14015000Y-53516120D02*
X17876760Y-57377880D01*
X10611880Y-53516120D02*
X14015000Y-53516120D01*
X11941000Y-65687000D02*
X10285000Y-65687000D01*
X8681000Y-75308364D02*
X10308516Y-76935880D01*
X87216364Y-76783000D02*
X93527000Y-76783000D01*
X74264760Y-65912760D02*
X74264760Y-72413240D01*
X71468364Y-63829000D02*
X72181000Y-63829000D01*
X35605000Y-55701000D02*
X35605000Y-42023000D01*
X72181000Y-63829000D02*
X74264760Y-65912760D01*
X84417880Y-18210120D02*
X86941000Y-15687000D01*
X10285000Y-65687000D02*
X8681000Y-64083000D01*
X61941000Y-91052000D02*
X63166000Y-92277000D01*
X20853017Y-34059240D02*
X31084760Y-34059240D01*
X15962978Y-37413000D02*
X10254360Y-31704382D01*
X10308516Y-76935880D02*
X37281880Y-76935880D01*
X81376760Y-91971240D02*
X81376760Y-82622604D01*
X81376760Y-82622604D02*
X87216364Y-76783000D01*
X68879000Y-66418364D02*
X71468364Y-63829000D01*
X18276452Y-26032360D02*
X18916244Y-26672152D01*
X8681000Y-64083000D02*
X8681000Y-75308364D01*
X18916244Y-32122467D02*
X20853017Y-34059240D01*
X33928120Y-57377880D02*
X35605000Y-55701000D01*
X10254360Y-26032360D02*
X18276452Y-26032360D01*
X45771480Y-91674360D02*
X46882120Y-92785000D01*
%TO.N,A2*%
X9391240Y-39445000D02*
X9391240Y-25169240D01*
X60281000Y-17347000D02*
X61941000Y-15687000D01*
X19779364Y-26314636D02*
X19779364Y-31764951D01*
X30652516Y-33196120D02*
X46501636Y-17347000D01*
X10633240Y-40687000D02*
X9391240Y-39445000D01*
X11941000Y-40687000D02*
X10633240Y-40687000D01*
X9391240Y-25169240D02*
X18633968Y-25169240D01*
X19779364Y-31764951D02*
X21210533Y-33196120D01*
X18633968Y-25169240D02*
X19779364Y-26314636D01*
X21210533Y-33196120D02*
X30652516Y-33196120D01*
X46501636Y-17347000D02*
X60281000Y-17347000D01*
%TO.N,A3*%
X83865000Y-49605000D02*
X83865000Y-51891000D01*
X78785000Y-47065000D02*
X81325000Y-47065000D01*
X70657000Y-57225000D02*
X72639636Y-57225000D01*
X75838120Y-54026516D02*
X75838120Y-50011880D01*
X90215000Y-71703000D02*
X93527000Y-71703000D01*
X81325000Y-47065000D02*
X83865000Y-49605000D01*
X72639636Y-57225000D02*
X75838120Y-54026516D01*
X75838120Y-50011880D02*
X78785000Y-47065000D01*
X61941000Y-48509000D02*
X70657000Y-57225000D01*
X86941000Y-65687000D02*
X86941000Y-68429000D01*
X86941000Y-68429000D02*
X90215000Y-71703000D01*
X61941000Y-40687000D02*
X61941000Y-48509000D01*
%TO.N,D12*%
X21525284Y-32477284D02*
X20728715Y-31680715D01*
X8485355Y-24450404D02*
X8485355Y-44770404D01*
X16282235Y-46447284D02*
X21898235Y-40831284D01*
X30252235Y-32477284D02*
X21525284Y-32477284D01*
X18948719Y-24450404D02*
X8485355Y-24450404D01*
X20728715Y-31680715D02*
X20728715Y-26230400D01*
X20728715Y-26230400D02*
X18948719Y-24450404D01*
X8485355Y-44770404D02*
X10162235Y-46447284D01*
X46898235Y-15831284D02*
X30252235Y-32477284D01*
X10162235Y-46447284D02*
X16282235Y-46447284D01*
X78244235Y-87087284D02*
X75642235Y-87087284D01*
X75642235Y-87087284D02*
X71898235Y-90831284D01*
%TD*%
M02*
