M48
; DRILL file {KiCad (6.0.4)} date Sat Aug 13 23:58:57 2022
; FORMAT={-:-/ absolute / inch / decimal}
; #@! TF.CreationDate,2022-08-13T23:58:57-04:00
; #@! TF.GenerationSoftware,Kicad,Pcbnew,(6.0.4)
; #@! TF.FileFunction,MixedPlating,1,2
FMAT,2
INCH
; #@! TA.AperFunction,Plated,PTH,ComponentDrill
T1C0.0354
; #@! TA.AperFunction,Plated,PTH,ComponentDrill
T2C0.0394
; #@! TA.AperFunction,Plated,PTH,ViaDrill
T3C0.0591
; #@! TA.AperFunction,NonPlated,NPTH,ComponentDrill
T4C0.1260
%
G90
G05
T1
X0.4701Y-0.2239
X0.4701Y-0.6176
X0.4701Y-1.2081
X0.4701Y-1.6019
X0.4701Y-2.1924
X0.4701Y-2.5861
X0.4701Y-3.1767
X0.4701Y-3.5704
X0.8638Y-0.2239
X0.8638Y-0.6176
X0.8638Y-1.2081
X0.8638Y-1.6019
X0.8638Y-2.1924
X0.8638Y-2.5861
X0.8638Y-3.1767
X0.8638Y-3.5704
X1.4544Y-0.2239
X1.4544Y-0.6176
X1.4544Y-1.2081
X1.4544Y-1.6019
X1.4544Y-2.1924
X1.4544Y-2.5861
X1.4544Y-3.1767
X1.4544Y-3.5704
X1.8481Y-0.2239
X1.8481Y-0.6176
X1.8481Y-1.2081
X1.8481Y-1.6019
X1.8481Y-2.1924
X1.8481Y-2.5861
X1.8481Y-3.1767
X1.8481Y-3.5704
X2.4386Y-0.2239
X2.4386Y-0.6176
X2.4386Y-1.2081
X2.4386Y-1.6019
X2.4386Y-2.1924
X2.4386Y-2.5861
X2.4386Y-3.1767
X2.4386Y-3.5704
X2.8323Y-0.2239
X2.8323Y-0.6176
X2.8323Y-1.2081
X2.8323Y-1.6019
X2.8323Y-2.1924
X2.8323Y-2.5861
X2.8323Y-3.1767
X2.8323Y-3.5704
X3.4229Y-0.2239
X3.4229Y-0.6176
X3.4229Y-1.2081
X3.4229Y-1.6019
X3.4229Y-2.1924
X3.4229Y-2.5861
X3.4229Y-3.1767
X3.4229Y-3.5704
X3.8166Y-0.2239
X3.8166Y-0.6176
X3.8166Y-1.2081
X3.8166Y-1.6019
X3.8166Y-2.1924
X3.8166Y-2.5861
X3.8166Y-3.1767
X3.8166Y-3.5704
T2
X3.0822Y-2.023
X3.0822Y-2.123
X3.0822Y-2.223
X3.0822Y-2.323
X3.0822Y-2.423
X3.0822Y-2.523
X3.0822Y-2.623
X3.0822Y-2.723
X3.0822Y-2.823
X3.0822Y-2.923
X3.0822Y-3.023
X3.0822Y-3.123
X3.0822Y-3.223
X3.0822Y-3.323
X3.0822Y-3.423
X3.6822Y-2.023
X3.6822Y-2.123
X3.6822Y-2.223
X3.6822Y-2.323
X3.6822Y-2.423
X3.6822Y-2.523
X3.6822Y-2.623
X3.6822Y-2.723
X3.6822Y-2.823
X3.6822Y-2.923
X3.6822Y-3.023
X3.6822Y-3.123
X3.6822Y-3.223
X3.6822Y-3.323
X3.6822Y-3.423
T3
X3.3018Y-2.043
T4
X0.1575Y-0.1575
X0.1575Y-3.622
X4.2126Y-0.1575
X4.2126Y-3.622
T0
M30
